<svg xmlns="http://www.w3.org/2000/svg" width="28" height="28" viewBox="0 0 28 28" fill="none">
  <path d="M25.1647 14.611C24.2008 14.4106 22.895 14.3047 21.3887 14.3047C20.767 14.3047 20.1801 14.323 19.6367 14.3583V2.39648C19.6367 1.62649 19.0102 1 18.2402 1H2.39648C1.58729 1 1 1.67275 1 2.59961V23.6738C1 24.2257 1.61004 24.8672 2.39648 24.8672H15.7773V25.4512C15.7773 26.3121 17.1587 26.5993 17.6127 26.6937C18.5766 26.8941 19.8823 27 21.3887 27C22.895 27 24.2008 26.8941 25.1647 26.6937C25.6186 26.5993 27 26.3121 27 25.4512V15.8535C27 14.9926 25.6186 14.7054 25.1647 14.611ZM26.2383 20.6499C26.2304 20.6663 26.0719 20.9462 24.8823 21.1746C23.9795 21.3479 22.7714 21.4395 21.3887 21.4395C20.0059 21.4395 18.7979 21.3479 17.895 21.1746C16.6762 20.9406 16.5397 20.6523 16.5391 20.6523V19.1682C16.9377 19.3549 17.3883 19.4488 17.6127 19.4954C18.5766 19.6958 19.8823 19.8017 21.3887 19.8017C22.895 19.8017 24.2008 19.6958 25.1647 19.4954C25.389 19.4488 25.8396 19.3549 26.2383 19.1682V20.6499ZM10.8008 20.7285C10.5904 20.7285 10.4199 20.899 10.4199 21.1094V22.0742H4.63086C4.43236 22.0742 4.30078 21.9116 4.30078 21.8457V18.0625H10.4199V19.332C10.4199 19.5424 10.5904 19.7129 10.8008 19.7129C11.0112 19.7129 11.1816 19.5424 11.1816 19.332V18.0625H15.7773V22.0742H11.1816V21.1094C11.1816 20.899 11.0112 20.7285 10.8008 20.7285ZM17.3008 14.6806C16.7168 14.8238 15.7773 15.1434 15.7773 15.8535V17.3008H11.1816V13.2891H16.9707C17.1527 13.2891 17.3008 13.4371 17.3008 13.6191V14.6806ZM10.4199 17.3008H4.30078V13.7207C4.30078 13.4625 4.43342 13.2891 4.63086 13.2891H10.4199V17.3008ZM26.2383 18.2505C26.2304 18.2668 26.0719 18.5467 24.8823 18.7752C23.9795 18.9485 22.7714 19.0401 21.3887 19.0401C20.0059 19.0401 18.7979 18.9485 17.895 18.7752C16.6762 18.5412 16.5397 18.2529 16.5391 18.2529V16.7687C16.9377 16.9555 17.3883 17.0494 17.6127 17.096C18.5766 17.2964 19.8823 17.4023 21.3887 17.4023C22.895 17.4023 24.2008 17.2964 25.1647 17.096C25.389 17.0494 25.8396 16.9555 26.2383 16.7688V18.2505ZM24.8823 15.3313C26.0311 15.5519 26.2184 15.8206 26.237 15.8535C26.2184 15.8864 26.0311 16.1552 24.8823 16.3757C23.9795 16.549 22.7714 16.6406 21.3887 16.6406C20.0059 16.6406 18.7979 16.549 17.895 16.3757C16.7463 16.1552 16.559 15.8864 16.5403 15.8535C16.559 15.8206 16.7463 15.5519 17.895 15.3313C18.7979 15.158 20.0059 15.0664 21.3887 15.0664C22.7714 15.0664 23.9795 15.158 24.8823 15.3313ZM2.39648 24.1055C2.02974 24.1055 1.76172 23.8026 1.76172 23.6738V11.2578H14.3047C14.5151 11.2578 14.6855 11.0873 14.6855 10.877C14.6855 10.6666 14.5151 10.4961 14.3047 10.4961H1.76172V2.59961C1.76172 2.09063 2.01085 1.76172 2.39648 1.76172H18.2402C18.5903 1.76172 18.875 2.04645 18.875 2.39648V10.4961H16.082C15.8716 10.4961 15.7012 10.6666 15.7012 10.877C15.7012 11.0873 15.8716 11.2578 16.082 11.2578H18.875V14.4219C18.5871 14.4519 18.3158 14.4876 18.0625 14.5287V13.6191C18.0625 13.0171 17.5727 12.5273 16.9707 12.5273H4.63086C4.00843 12.5273 3.53906 13.0404 3.53906 13.7207V21.8457C3.53906 22.3732 4.04926 22.8359 4.63086 22.8359H15.7773V24.1055H2.39648ZM24.8823 25.9734C23.9795 26.1467 22.7714 26.2383 21.3887 26.2383C20.0059 26.2383 18.7979 26.1467 17.895 25.9734C16.6762 25.7394 16.5397 25.4512 16.5391 25.4512V23.967C16.9377 24.1537 17.3883 24.2476 17.6127 24.2942C18.5766 24.4946 19.8823 24.6005 21.3887 24.6005C22.1145 24.6005 22.802 24.5754 23.4321 24.5257C23.6418 24.5092 23.7984 24.3259 23.7819 24.1162C23.7654 23.9065 23.5815 23.7498 23.3723 23.7664C22.7621 23.8144 22.0947 23.8388 21.3887 23.8388C20.0059 23.8388 18.7979 23.7472 17.895 23.5739C16.6762 23.34 16.5397 23.0518 16.5391 23.0518V21.5676C16.9377 21.7543 17.3883 21.8482 17.6127 21.8948C18.5766 22.0952 19.8823 22.2011 21.3887 22.2011C22.895 22.2011 24.2008 22.0952 25.1647 21.8948C25.389 21.8482 25.8396 21.7543 26.2383 21.5676V23.0493C26.2305 23.0655 26.0902 23.3134 25.0821 23.5331C24.8766 23.5779 24.7463 23.7808 24.7911 23.9863C24.835 24.1933 25.0441 24.3227 25.2443 24.2773C25.4527 24.2319 25.8653 24.1417 26.2383 23.9673V25.4487C26.2304 25.4651 26.0719 25.7449 24.8823 25.9734Z" fill="white" stroke="white" stroke-width="0.5"/>
  <path d="M18.1133 8.13477V4.12305C18.1133 3.52104 17.6235 3.03125 17.0215 3.03125H8.61719C8.4068 3.03125 8.23633 3.20172 8.23633 3.41211C8.23633 3.6225 8.4068 3.79297 8.61719 3.79297H17.0215C17.2035 3.79297 17.3516 3.94105 17.3516 4.12305V8.13477C17.3516 8.31677 17.2035 8.46484 17.0215 8.46484H4.63086C4.44886 8.46484 4.30078 8.31677 4.30078 8.13477V4.12305C4.30078 3.94105 4.44886 3.79297 4.63086 3.79297H6.83984C7.05023 3.79297 7.2207 3.6225 7.2207 3.41211C7.2207 3.20172 7.05023 3.03125 6.83984 3.03125H4.63086C4.02885 3.03125 3.53906 3.52104 3.53906 4.12305V8.13477C3.53906 8.73678 4.02885 9.22656 4.63086 9.22656H17.0215C17.6235 9.22656 18.1133 8.73678 18.1133 8.13477Z" fill="white" stroke="white" stroke-width="0.5"/>
  <path d="M8.99805 19.6875H6.25586C6.04547 19.6875 5.875 19.858 5.875 20.0684C5.875 20.2787 6.04547 20.4492 6.25586 20.4492H8.99805C9.20843 20.4492 9.37891 20.2787 9.37891 20.0684C9.37891 19.858 9.20843 19.6875 8.99805 19.6875Z" fill="white" stroke="white" stroke-width="0.5"/>
  <path d="M6.50977 15.6758H7.24609V16.4121C7.24609 16.6225 7.41657 16.793 7.62695 16.793C7.83734 16.793 8.00781 16.6225 8.00781 16.4121V15.6758H8.74414C8.95453 15.6758 9.125 15.5053 9.125 15.2949C9.125 15.0845 8.95453 14.9141 8.74414 14.9141H8.00781V14.1777C8.00781 13.9673 7.83734 13.7969 7.62695 13.7969C7.41657 13.7969 7.24609 13.9673 7.24609 14.1777V14.9141H6.50977C6.29938 14.9141 6.12891 15.0845 6.12891 15.2949C6.12891 15.5053 6.29938 15.6758 6.50977 15.6758Z" fill="white" stroke="white" stroke-width="0.5"/>
  <path d="M15.0593 14.2356C14.9105 14.0869 14.6694 14.0869 14.5207 14.2356L14 14.7563L13.4794 14.2356C13.3306 14.0869 13.0895 14.0869 12.9407 14.2356C12.792 14.3844 12.792 14.6255 12.9407 14.7743L13.4614 15.2949L12.9407 15.8156C12.792 15.9644 12.792 16.2055 12.9407 16.3542C13.0895 16.5029 13.3306 16.5029 13.4794 16.3542L14 15.8336L14.5207 16.3542C14.6695 16.5029 14.9105 16.5029 15.0593 16.3542C15.208 16.2054 15.208 15.9643 15.0593 15.8156L14.5387 15.2949L15.0593 14.7743C15.208 14.6255 15.208 14.3844 15.0593 14.2356Z" fill="white" stroke="white" stroke-width="0.5"/>
  <path d="M13.1442 21.3199C13.2416 21.3199 13.3391 21.2827 13.4135 21.2084L15.1401 19.4818C15.2888 19.333 15.2888 19.0919 15.1401 18.9432C14.9913 18.7945 14.7502 18.7945 14.6014 18.9432L12.8749 20.6698C12.7261 20.8185 12.7261 21.0597 12.8749 21.2084C12.9493 21.2827 13.0468 21.3199 13.1442 21.3199Z" fill="white" stroke="white" stroke-width="0.5"/>
  <path d="M13.2637 19.4844C13.474 19.4844 13.6445 19.3139 13.6445 19.1035C13.6445 18.8932 13.474 18.7227 13.2637 18.7227C13.0533 18.7227 12.8828 18.8932 12.8828 19.1035C12.8828 19.3139 13.0533 19.4844 13.2637 19.4844Z" fill="white" stroke="white" stroke-width="0.5"/>
  <path d="M14.7871 21.4141C14.9975 21.4141 15.168 21.2435 15.168 21.0332C15.168 20.8229 14.9975 20.6523 14.7871 20.6523C14.5768 20.6523 14.4062 20.8229 14.4062 21.0332C14.4062 21.2435 14.5768 21.4141 14.7871 21.4141Z" fill="white" stroke="white" stroke-width="0.5"/>
  <path d="M15.752 7.75391C16.2419 7.75391 16.6406 7.35522 16.6406 6.86523V5.39258C16.6406 4.90259 16.2419 4.50391 15.752 4.50391H15.041C14.551 4.50391 14.1523 4.90259 14.1523 5.39258V6.86523C14.1523 7.35522 14.551 7.75391 15.041 7.75391H15.752ZM14.9141 6.86523V5.39258C14.9141 5.32255 14.971 5.26562 15.041 5.26562H15.752C15.822 5.26562 15.8789 5.32255 15.8789 5.39258V6.86523C15.8789 6.93526 15.822 6.99219 15.752 6.99219H15.041C14.971 6.99219 14.9141 6.93526 14.9141 6.86523Z" fill="white" stroke="white" stroke-width="0.5"/>
</svg>