<svg xmlns="http://www.w3.org/2000/svg" width="26" height="26" viewBox="0 0 26 26" fill="none">
  <path d="M3.97724 3.06918C3.97654 3.06918 3.97575 3.06918 3.97505 3.06918C3.72914 3.06918 3.49786 3.16504 3.32321 3.33925C3.14664 3.51539 3.04938 3.74991 3.04938 3.99958V17.9508C3.04938 18.4624 3.46722 18.8796 3.98092 18.8809C6.14654 18.8861 9.77483 19.3375 12.2778 21.9568V7.35648C12.2778 7.18306 12.2335 7.02015 12.1499 6.88533C10.0956 3.57693 6.14777 3.07426 3.97724 3.06918Z" fill="white"/>
  <path d="M22.9507 17.9499V3.99858C22.9507 3.74891 22.8535 3.51439 22.6769 3.33825C22.5022 3.16404 22.2708 3.06818 22.0251 3.06818C22.0243 3.06818 22.0236 3.06818 22.0229 3.06818C19.8524 3.07335 15.9046 3.57602 13.8502 6.88442C13.7666 7.01923 13.7224 7.18215 13.7224 7.35557V21.9558C16.2254 19.3364 19.8536 18.8851 22.0193 18.8799C22.5329 18.8786 22.9507 18.4614 22.9507 17.9499Z" fill="white"/>
  <path d="M25.0698 6.28562H24.3952V17.9498C24.3952 19.2561 23.3309 20.3212 22.0227 20.3244C20.1858 20.3288 17.157 20.688 15.012 22.7182C18.7218 21.8099 22.6327 22.4003 24.8615 22.9082C25.1398 22.9716 25.4274 22.9061 25.6504 22.7284C25.8726 22.5512 26 22.2862 26 22.0017V7.21585C26.0001 6.70294 25.5827 6.28562 25.0698 6.28562Z" fill="white"/>
  <path d="M1.60483 17.9498V6.28562H0.930225C0.417402 6.28562 0 6.70294 0 7.21585V22.0015C0 22.286 0.127462 22.5509 0.349644 22.7282C0.57244 22.9058 0.859754 22.9715 1.13849 22.908C3.36732 22.4 7.27827 21.8096 10.988 22.7179C8.84301 20.6878 5.81421 20.3287 3.97731 20.3243C2.66917 20.3212 1.60483 19.2561 1.60483 17.9498Z" fill="white"/>
</svg>