<svg width="20" height="20" viewBox="0 0 20 20" fill="none" xmlns="http://www.w3.org/2000/svg">
<path d="M8.91667 15.4167C8.91667 16.0125 9.40417 16.5 10 16.5C10.5958 16.5 11.0833 16.0125 11.0833 15.4167C11.0833 14.8208 10.5958 14.3333 10 14.3333C9.40417 14.3333 8.91667 14.8208 8.91667 15.4167ZM8.91667 0.25V4.58333H11.0833V2.50333C14.7558 3.03417 17.5833 6.17583 17.5833 10C17.5833 14.1925 14.1925 17.5833 10 17.5833C5.8075 17.5833 2.41667 14.1925 2.41667 10C2.41667 8.18 3.05583 6.51167 4.12833 5.21167L10 11.0833L11.5275 9.55583L4.16083 2.18917V2.21083C1.78833 3.9875 0.25 6.80417 0.25 10C0.25 15.3842 4.605 19.75 10 19.75C15.3842 19.75 19.75 15.3842 19.75 10C19.75 4.61583 15.3842 0.25 10 0.25H8.91667ZM16.5 10C16.5 9.40417 16.0125 8.91667 15.4167 8.91667C14.8208 8.91667 14.3333 9.40417 14.3333 10C14.3333 10.5958 14.8208 11.0833 15.4167 11.0833C16.0125 11.0833 16.5 10.5958 16.5 10ZM3.5 10C3.5 10.5958 3.9875 11.0833 4.58333 11.0833C5.17917 11.0833 5.66667 10.5958 5.66667 10C5.66667 9.40417 5.17917 8.91667 4.58333 8.91667C3.9875 8.91667 3.5 9.40417 3.5 10Z" fill="white"/>
</svg>
