<svg xmlns="http://www.w3.org/2000/svg" width="26" height="26" viewBox="0 0 26 26" fill="none">
  <g clip-path="url(#clip0_22_3)">
    <path d="M13.25 11.9167C15.0483 11.9167 16.4892 10.465 16.4892 8.66667C16.4892 6.86834 15.0483 5.41667 13.25 5.41667C11.4517 5.41667 10 6.86834 10 8.66667C10 10.465 11.4517 11.9167 13.25 11.9167ZM4.58333 11.9167C6.38167 11.9167 7.8225 10.465 7.8225 8.66667C7.8225 6.86834 6.38167 5.41667 4.58333 5.41667C2.785 5.41667 1.33333 6.86834 1.33333 8.66667C1.33333 10.465 2.785 11.9167 4.58333 11.9167ZM4.58333 14.0833C2.05917 14.0833 -3 15.3508 -3 17.875V20.5833H12.1667V17.875C12.1667 15.3508 7.1075 14.0833 4.58333 14.0833ZM13.25 14.0833C12.9358 14.0833 12.5783 14.105 12.1992 14.1375C13.4558 15.0475 14.3333 16.2717 14.3333 17.875V20.5833H20.8333V17.875C20.8333 15.3508 15.7742 14.0833 13.25 14.0833Z" fill="white"/>
  </g>
  <defs>
    <clipPath id="clip0_22_3">
      <rect width="26" height="26" fill="white"/>
    </clipPath>
  </defs>
</svg>