<svg xmlns="http://www.w3.org/2000/svg" width="43" height="43" viewBox="0 0 43 43" fill="none">
  <g clip-path="url(#clip0_34_63)">
    <path d="M27.7708 25.0833H26.3554L25.8538 24.5996C27.6096 22.5571 28.6667 19.9054 28.6667 17.0208C28.6667 10.5888 23.4529 5.375 17.0208 5.375C10.5888 5.375 5.375 10.5888 5.375 17.0208C5.375 23.4529 10.5888 28.6667 17.0208 28.6667C19.9054 28.6667 22.5571 27.6096 24.5996 25.8538L25.0833 26.3554V27.7708L34.0417 36.7113L36.7113 34.0417L27.7708 25.0833ZM17.0208 25.0833C12.5596 25.0833 8.95833 21.4821 8.95833 17.0208C8.95833 12.5596 12.5596 8.95833 17.0208 8.95833C21.4821 8.95833 25.0833 12.5596 25.0833 17.0208C25.0833 21.4821 21.4821 25.0833 17.0208 25.0833Z" fill="#A3A3A3"/>
  </g>
  <defs>
    <clipPath id="clip0_34_63">
      <rect width="43" height="43" fill="white"/>
    </clipPath>
  </defs>
</svg>