<svg xmlns="http://www.w3.org/2000/svg" width="26" height="26" viewBox="0 0 26 26" fill="none">
  <g clip-path="url(#clip0_22_9)">
    <path d="M20.735 14.014C20.774 13.689 20.8 13.351 20.8 13C20.8 12.649 20.774 12.311 20.722 11.986L22.919 10.27C23.114 10.114 23.166 9.828 23.049 9.607L20.969 6.006C20.839 5.772 20.566 5.694 20.332 5.772L17.745 6.812C17.199 6.396 16.627 6.058 15.99 5.798L15.6 3.042C15.561 2.782 15.34 2.6 15.08 2.6H10.92C10.66 2.6 10.452 2.782 10.413 3.042L10.023 5.798C9.38597 6.058 8.80097 6.409 8.26797 6.812L5.68097 5.772C5.44697 5.681 5.17397 5.772 5.04397 6.006L2.96397 9.607C2.83397 9.841 2.88597 10.114 3.09397 10.27L5.29097 11.986C5.23897 12.311 5.19997 12.662 5.19997 13C5.19997 13.338 5.22597 13.689 5.27797 14.014L3.08097 15.73C2.88597 15.886 2.83397 16.172 2.95097 16.393L5.03097 19.994C5.16097 20.228 5.43397 20.306 5.66797 20.228L8.25497 19.188C8.80097 19.604 9.37297 19.942 10.01 20.202L10.4 22.958C10.452 23.218 10.66 23.4 10.92 23.4H15.08C15.34 23.4 15.561 23.218 15.587 22.958L15.977 20.202C16.614 19.942 17.199 19.591 17.732 19.188L20.319 20.228C20.553 20.319 20.826 20.228 20.956 19.994L23.036 16.393C23.166 16.159 23.114 15.886 22.906 15.73L20.735 14.014ZM13 16.9C10.855 16.9 9.09997 15.145 9.09997 13C9.09997 10.855 10.855 9.1 13 9.1C15.145 9.1 16.9 10.855 16.9 13C16.9 15.145 15.145 16.9 13 16.9Z" fill="white"/>
  </g>
  <defs>
    <clipPath id="clip0_22_9">
      <rect width="26" height="26" fill="white"/>
    </clipPath>
  </defs>
</svg>