<svg xmlns="http://www.w3.org/2000/svg" width="20" height="28" viewBox="0 0 20 28" fill="none">
  <path d="M19.3439 25.2015C18.1855 19.385 18.2356 19.6326 18.2299 19.6087C18.078 18.8735 17.6509 18.2631 16.9586 17.8806C16.6347 17.7013 16.448 17.6734 16.2848 17.6201L13.4389 16.6316L12.4905 15.9811V15.2433C13.8774 14.4193 14.7604 13.0004 14.9218 11.4648C16.0808 11.5186 16.8886 10.4108 16.4027 9.441V6.33624C16.4027 4.09101 15.1816 3.30989 14.8085 3.12373C12.9831 0.944555 9.57438 0.385657 6.99033 1.7116L6.98536 1.71409C6.94102 1.74014 6.40848 1.98653 5.7527 2.53487C5.5936 2.67249 5.57618 2.91298 5.71375 3.07208C5.85157 3.23138 6.09212 3.24839 6.25096 3.11103C8.78169 0.986043 12.538 1.53209 14.2745 3.67328C14.3172 3.72594 14.3693 3.76479 14.4328 3.78855C14.4822 3.80836 15.641 4.29606 15.641 6.33624V8.73992C15.4297 8.65044 15.198 8.60459 14.9511 8.61149V7.36578C14.9511 7.04977 14.7131 6.7886 14.3974 6.75813C13.7574 6.69633 13.3988 6.27932 13.2106 5.94046C12.975 5.51628 12.4128 5.41467 12.0441 5.72971C10.346 7.18129 8.39068 7.25503 7.04944 7.0616C6.03631 6.91535 5.09401 7.60542 4.93004 8.612C4.68345 8.60134 4.4398 8.64501 4.2158 8.73987C4.21728 7.42865 4.066 6.002 5.1384 4.3672C5.25347 4.1911 5.20395 3.95512 5.02785 3.84005C4.85179 3.72492 4.61576 3.77433 4.50069 3.95055C3.04124 6.18685 3.56342 8.19067 3.45404 9.44095C2.96837 10.4104 3.77507 11.5186 4.93481 11.4647C5.12413 13.2732 6.23816 14.3136 6.26462 14.3589L6.26467 14.3589C6.46241 14.5485 6.81753 14.9445 7.50972 15.326V15.981L6.56139 16.6314C2.84984 17.9207 3.22654 17.7642 2.925 17.9485C2.35508 18.2995 1.96005 18.8364 1.79542 19.4975C1.76297 19.6282 1.81685 19.3813 0.65635 25.2013C0.632991 25.3189 0.620702 25.5481 0.641674 25.7424C0.727698 26.5417 1.29452 27 2.1968 27H12.662C12.8724 27 13.0428 26.8295 13.0428 26.6192C13.0428 26.4088 12.8724 26.2383 12.662 26.2383H4.8751V22.7487C4.8751 22.5383 4.70457 22.3679 4.49424 22.3679C4.2839 22.3679 4.11338 22.5383 4.11338 22.7487V26.2383H2.19669C1.59956 26.2383 1.31915 25.9822 1.40558 25.3392C2.44776 20.2466 2.44999 19.8357 2.62046 19.4184C2.65017 19.3768 2.8144 18.7892 3.61958 18.4474C3.70281 18.4133 3.65091 18.4361 3.93722 18.3489C3.95489 18.3438 3.8676 18.3735 5.23539 17.8986L6.14767 19.5827C6.24786 19.7676 6.47892 19.8364 6.66396 19.7361C6.84891 19.6359 6.91762 19.4048 6.81742 19.2198L5.9645 17.6453L6.54778 17.4426C6.82895 17.9617 9.3185 22.5573 9.58911 23.0567C9.75613 23.3661 10.1814 23.3815 10.3773 23.1114C10.4128 23.0625 10.21 23.4265 13.4476 17.4409L14.0307 17.6435L10.9476 23.3467C10.5411 24.0985 9.46053 24.0985 9.05357 23.3475L7.66405 20.7824C7.56381 20.5975 7.33275 20.5286 7.14776 20.629C6.96281 20.7292 6.8941 20.9603 6.9943 21.1452L8.38387 23.7104C9.07891 24.9931 10.924 24.992 11.6176 23.7089L14.7597 17.8967C16.1244 18.3706 16.0444 18.3435 16.0621 18.3486C16.3306 18.4304 16.3007 18.4146 16.3798 18.447C16.671 18.571 16.8448 18.7142 16.8397 18.7104C17.1384 18.9513 17.3443 19.2296 17.4543 19.6393C17.4723 19.7043 18.603 25.3102 18.6076 25.4993C18.6189 25.9775 18.4124 26.2383 17.8037 26.2383H15.8868V22.7487C15.8868 22.5383 15.7164 22.3679 15.506 22.3679C15.2956 22.3679 15.1251 22.5383 15.1251 22.7487V26.2383H14.4391C14.2287 26.2383 14.0583 26.4088 14.0583 26.6192C14.0583 26.8296 14.2287 27.0001 14.4391 27.0001H17.8035C18.7058 27.0001 19.2726 26.5417 19.3585 25.7429C19.3793 25.5523 19.3671 25.3183 19.3439 25.2015ZM14.9511 9.37346C15.3903 9.35026 15.7834 9.64611 15.7834 10.0385C15.7834 10.4349 15.386 10.7267 14.9511 10.7037V9.37346ZM4.90567 10.7037C4.46651 10.7269 4.07336 10.431 4.07336 10.0386C4.07336 9.64225 4.47073 9.35046 4.90567 9.37346V10.7037ZM6.94057 7.8155C8.43765 8.03157 10.6241 7.9456 12.5389 6.30872L12.5446 6.31019C12.9124 6.97263 13.4929 7.39082 14.1894 7.49928V8.84798L13.7548 9.10448C13.5758 8.84661 13.2781 8.6771 12.9412 8.6771H11.1983C10.7872 8.6771 10.4341 8.92903 10.2846 9.28648H9.5722C9.42265 8.92903 9.06947 8.6771 8.65839 8.6771H6.91553C6.5786 8.6771 6.28077 8.84661 6.10192 9.10448L5.66931 8.8491C5.70679 8.19803 6.29534 7.72216 6.94057 7.8155ZM13.1697 9.66734V10.4258C13.1697 10.7562 12.9009 11.0249 12.5705 11.0249H11.5689C11.2385 11.0249 10.9697 10.7561 10.9697 10.4258V9.66734H10.9698C10.9698 9.54348 11.0745 9.43882 11.1983 9.43882H12.9412C13.065 9.43882 13.1697 9.54348 13.1697 9.66734ZM8.88691 9.66734V10.4258C8.88691 10.7562 8.61818 11.0249 8.28779 11.0249H7.28613C6.95575 11.0249 6.68702 10.7561 6.68702 10.4258V9.66734C6.68702 9.54348 6.79168 9.43882 6.91553 9.43882H8.65839C8.78225 9.43882 8.88691 9.54348 8.88691 9.66734ZM6.69448 13.6977C5.46187 12.261 5.69948 10.866 5.66738 9.73249L5.9254 9.88478V10.4258C5.9254 11.1761 6.53584 11.7866 7.28619 11.7866H8.28784C9.03819 11.7866 9.64863 11.1762 9.64863 10.4258V10.0481H10.2083V10.4258C10.2083 11.1761 10.8187 11.7866 11.5691 11.7866H12.5707C13.3211 11.7866 13.9316 11.1762 13.9316 10.4258V9.88478L14.1896 9.73249V10.9234C14.1896 13.1886 12.3967 15.1568 9.92853 15.1839C9.9234 15.1838 9.87211 15.1835 9.87719 15.1835C9.21881 15.1769 8.71288 15.0081 8.76407 15.0225C8.01672 14.8152 7.30396 14.3873 6.69448 13.6977ZM10.0001 17.9586L8.27144 16.035V15.6656C9.06642 15.9417 9.89085 16.0052 10.6585 15.8933C10.8727 15.8621 11.1033 15.8111 11.2381 15.773C11.2702 15.7626 11.454 15.7186 11.7288 15.6129V16.035L10.0001 17.9586ZM10.4291 19.3159L10.2608 19.6624H9.73952L9.57118 19.3159L10.0001 19.0008L10.4291 19.3159ZM8.99644 20.3638L8.75391 19.9161L8.94708 19.7743L9.09145 20.0715L8.99644 20.3638ZM8.39032 19.2382L7.23317 17.0976L7.83163 16.6849L9.43595 18.4702C9.34328 18.5381 8.48132 19.1713 8.39032 19.2382ZM10 22.2163L9.49699 21.2877L9.77781 20.4241H10.2227L10.503 21.2862C10.3435 21.5809 10.1955 21.8547 10 22.2163ZM11.003 20.361L10.9089 20.0714L11.0532 19.7742L11.2443 19.9145L11.003 20.361ZM11.61 19.2382C11.5111 19.1655 10.6837 18.5578 10.5645 18.4702L12.1688 16.6849L12.7672 17.0976C12.3829 17.8085 11.8594 18.7767 11.61 19.2382Z" fill="white" stroke="white" stroke-width="0.4"/>
</svg>